<mxfile host="Electron" modified="2024-04-02T02:35:21.578Z" agent="Mozilla/5.0 (Windows NT 10.0; Win64; x64) AppleWebKit/537.36 (KHTML, like Gecko) draw.io/23.1.5 Chrome/120.0.6099.109 Electron/28.1.0 Safari/537.36" etag="fUr7kWyVsUmOweMwdGdT" version="23.1.5" type="device" pages="3">
  <diagram name="uml" id="4G7bXzPP9IaNKN-uvetp">
    <mxGraphModel dx="2283" dy="798" grid="1" gridSize="10" guides="1" tooltips="1" connect="1" arrows="1" fold="1" page="0" pageScale="1" pageWidth="827" pageHeight="1169" math="0" shadow="0">
      <root>
        <mxCell id="0" />
        <mxCell id="1" parent="0" />
        <mxCell id="OYMvCbrC9KAhCQ8MRdoG-130" style="edgeStyle=orthogonalEdgeStyle;rounded=0;orthogonalLoop=1;jettySize=auto;html=1;exitX=0.5;exitY=0;exitDx=0;exitDy=0;entryX=0.5;entryY=1;entryDx=0;entryDy=0;endArrow=none;endFill=0;strokeWidth=4;" parent="1" source="kGv3nj2VXKhPonacH8l7-1" target="OYMvCbrC9KAhCQ8MRdoG-128" edge="1">
          <mxGeometry relative="1" as="geometry" />
        </mxCell>
        <mxCell id="kGv3nj2VXKhPonacH8l7-1" value="members" style="swimlane;childLayout=stackLayout;horizontal=1;startSize=40;horizontalStack=0;rounded=1;fontSize=14;fontStyle=0;strokeWidth=2;resizeParent=0;resizeLast=1;shadow=0;dashed=0;align=center;arcSize=4;whiteSpace=wrap;html=1;" parent="1" vertex="1">
          <mxGeometry x="-920" y="-50" width="150" height="180" as="geometry" />
        </mxCell>
        <mxCell id="kGv3nj2VXKhPonacH8l7-2" value="&lt;u&gt;member_email&lt;/u&gt;&lt;br&gt;&lt;div&gt;&lt;div&gt;&lt;div&gt;&lt;div&gt;&lt;/div&gt;&lt;/div&gt;&lt;/div&gt;&lt;div&gt;first_name&lt;/div&gt;&lt;div&gt;last_name&lt;/div&gt;&lt;div&gt;&lt;div&gt;password&lt;br&gt;&lt;div&gt;&lt;div&gt;&lt;span style=&quot;background-color: initial;&quot;&gt;phone&lt;/span&gt;&lt;br&gt;&lt;/div&gt;&lt;div&gt;birthday&lt;/div&gt;&lt;div&gt;gender&lt;/div&gt;&lt;div&gt;current_weight&lt;/div&gt;&lt;div&gt;current_height&lt;/div&gt;&lt;div&gt;&lt;br&gt;&lt;/div&gt;&lt;div&gt;&lt;br&gt;&lt;/div&gt;&lt;/div&gt;&lt;/div&gt;&lt;/div&gt;&lt;div&gt;&lt;br&gt;&lt;/div&gt;&lt;div&gt;&lt;br&gt;&lt;/div&gt;&lt;div&gt;&lt;br&gt;&lt;/div&gt;&lt;/div&gt;" style="align=left;strokeColor=none;fillColor=none;spacingLeft=4;fontSize=12;verticalAlign=top;resizable=0;rotatable=0;part=1;html=1;" parent="kGv3nj2VXKhPonacH8l7-1" vertex="1">
          <mxGeometry y="40" width="150" height="120" as="geometry" />
        </mxCell>
        <mxCell id="OYMvCbrC9KAhCQ8MRdoG-51" value="&lt;div&gt;&lt;div&gt;&lt;div&gt;&lt;br&gt;&lt;/div&gt;&lt;/div&gt;&lt;/div&gt;" style="align=left;strokeColor=none;fillColor=none;spacingLeft=4;fontSize=12;verticalAlign=top;resizable=0;rotatable=0;part=1;html=1;" parent="kGv3nj2VXKhPonacH8l7-1" vertex="1">
          <mxGeometry y="160" width="150" height="20" as="geometry" />
        </mxCell>
        <mxCell id="OYMvCbrC9KAhCQ8MRdoG-3" style="edgeStyle=orthogonalEdgeStyle;rounded=0;orthogonalLoop=1;jettySize=auto;html=1;exitX=0.5;exitY=1;exitDx=0;exitDy=0;" parent="kGv3nj2VXKhPonacH8l7-1" source="kGv3nj2VXKhPonacH8l7-2" target="kGv3nj2VXKhPonacH8l7-2" edge="1">
          <mxGeometry relative="1" as="geometry" />
        </mxCell>
        <mxCell id="OYMvCbrC9KAhCQ8MRdoG-1" value="trainers" style="swimlane;childLayout=stackLayout;horizontal=1;startSize=40;horizontalStack=0;rounded=1;fontSize=14;fontStyle=0;strokeWidth=2;resizeParent=0;resizeLast=1;shadow=0;align=center;arcSize=4;whiteSpace=wrap;html=1;" parent="1" vertex="1">
          <mxGeometry x="-620" y="640" width="160" height="160" as="geometry" />
        </mxCell>
        <mxCell id="OYMvCbrC9KAhCQ8MRdoG-2" value="&lt;div&gt;&lt;div&gt;&lt;u&gt;trainer_email&lt;/u&gt;&lt;/div&gt;&lt;div&gt;first_name&lt;/div&gt;&lt;div&gt;last_name&lt;/div&gt;&lt;div&gt;password&lt;/div&gt;&lt;div&gt;phone&lt;/div&gt;&lt;div&gt;gender&lt;/div&gt;&lt;div&gt;&lt;br&gt;&lt;/div&gt;&lt;div&gt;&lt;br&gt;&lt;/div&gt;&lt;/div&gt;" style="align=left;strokeColor=none;fillColor=none;spacingLeft=4;fontSize=12;verticalAlign=top;resizable=0;rotatable=0;part=1;html=1;" parent="OYMvCbrC9KAhCQ8MRdoG-1" vertex="1">
          <mxGeometry y="40" width="160" height="120" as="geometry" />
        </mxCell>
        <mxCell id="OYMvCbrC9KAhCQ8MRdoG-5" value="admins" style="swimlane;childLayout=stackLayout;horizontal=1;startSize=40;horizontalStack=0;rounded=1;fontSize=14;fontStyle=0;strokeWidth=2;resizeParent=0;resizeLast=1;shadow=0;dashed=0;align=center;arcSize=4;whiteSpace=wrap;html=1;" parent="1" vertex="1">
          <mxGeometry x="-190" y="-50" width="160" height="110" as="geometry" />
        </mxCell>
        <mxCell id="OYMvCbrC9KAhCQ8MRdoG-6" value="&lt;u&gt;admin_email&lt;/u&gt;&lt;br&gt;&lt;div&gt;&lt;div&gt;first_name&lt;/div&gt;&lt;div&gt;last_name&lt;/div&gt;&lt;div&gt;password&lt;/div&gt;&lt;div&gt;&lt;br&gt;&lt;/div&gt;&lt;div&gt;&lt;br&gt;&lt;/div&gt;&lt;div&gt;&lt;br&gt;&lt;/div&gt;&lt;div&gt;&lt;br&gt;&lt;/div&gt;&lt;/div&gt;" style="align=left;strokeColor=none;fillColor=none;spacingLeft=4;fontSize=12;verticalAlign=top;resizable=0;rotatable=0;part=1;html=1;" parent="OYMvCbrC9KAhCQ8MRdoG-5" vertex="1">
          <mxGeometry y="40" width="160" height="70" as="geometry" />
        </mxCell>
        <mxCell id="OYMvCbrC9KAhCQ8MRdoG-7" value="health_goals" style="swimlane;childLayout=stackLayout;horizontal=1;startSize=40;horizontalStack=0;rounded=1;fontSize=14;fontStyle=0;strokeWidth=2;resizeParent=0;resizeLast=1;shadow=0;dashed=0;align=center;arcSize=4;whiteSpace=wrap;html=1;" parent="1" vertex="1">
          <mxGeometry x="-1370" y="-110" width="160" height="100" as="geometry" />
        </mxCell>
        <mxCell id="OYMvCbrC9KAhCQ8MRdoG-8" value="&lt;div&gt;&lt;u&gt;health_goal_id&lt;/u&gt;&lt;/div&gt;&lt;div&gt;member_email&lt;/div&gt;&lt;div&gt;&lt;span style=&quot;background-color: initial;&quot;&gt;description&lt;/span&gt;&lt;/div&gt;&lt;div&gt;&lt;br&gt;&lt;/div&gt;" style="align=left;strokeColor=none;fillColor=none;spacingLeft=4;fontSize=12;verticalAlign=top;resizable=0;rotatable=0;part=1;html=1;" parent="OYMvCbrC9KAhCQ8MRdoG-7" vertex="1">
          <mxGeometry y="40" width="160" height="60" as="geometry" />
        </mxCell>
        <mxCell id="OYMvCbrC9KAhCQ8MRdoG-9" style="edgeStyle=orthogonalEdgeStyle;rounded=0;orthogonalLoop=1;jettySize=auto;html=1;exitX=0.5;exitY=1;exitDx=0;exitDy=0;" parent="OYMvCbrC9KAhCQ8MRdoG-7" source="OYMvCbrC9KAhCQ8MRdoG-8" target="OYMvCbrC9KAhCQ8MRdoG-8" edge="1">
          <mxGeometry relative="1" as="geometry" />
        </mxCell>
        <mxCell id="OYMvCbrC9KAhCQ8MRdoG-13" value="member_schedules" style="swimlane;childLayout=stackLayout;horizontal=1;startSize=40;horizontalStack=0;rounded=1;fontSize=14;fontStyle=0;strokeWidth=2;resizeParent=0;resizeLast=1;shadow=0;dashed=0;align=center;arcSize=4;whiteSpace=wrap;html=1;" parent="1" vertex="1">
          <mxGeometry x="-920" y="240" width="160" height="100" as="geometry" />
        </mxCell>
        <mxCell id="OYMvCbrC9KAhCQ8MRdoG-14" value="&lt;u&gt;schedule_id&lt;/u&gt;&lt;div&gt;member_email&lt;br&gt;&lt;div&gt;booking_id&lt;/div&gt;&lt;div&gt;&lt;u&gt;&lt;br&gt;&lt;/u&gt;&lt;/div&gt;&lt;div&gt;&lt;u&gt;&lt;br&gt;&lt;/u&gt;&lt;/div&gt;&lt;/div&gt;" style="align=left;strokeColor=none;fillColor=none;spacingLeft=4;fontSize=12;verticalAlign=top;resizable=0;rotatable=0;part=1;html=1;" parent="OYMvCbrC9KAhCQ8MRdoG-13" vertex="1">
          <mxGeometry y="40" width="160" height="60" as="geometry" />
        </mxCell>
        <mxCell id="OYMvCbrC9KAhCQ8MRdoG-15" style="edgeStyle=orthogonalEdgeStyle;rounded=0;orthogonalLoop=1;jettySize=auto;html=1;exitX=0.5;exitY=1;exitDx=0;exitDy=0;" parent="OYMvCbrC9KAhCQ8MRdoG-13" source="OYMvCbrC9KAhCQ8MRdoG-14" target="OYMvCbrC9KAhCQ8MRdoG-14" edge="1">
          <mxGeometry relative="1" as="geometry" />
        </mxCell>
        <mxCell id="OYMvCbrC9KAhCQ8MRdoG-20" value="classes" style="swimlane;childLayout=stackLayout;horizontal=1;startSize=40;horizontalStack=0;rounded=1;fontSize=14;fontStyle=0;strokeWidth=2;resizeParent=0;resizeLast=1;shadow=0;dashed=0;align=center;arcSize=4;whiteSpace=wrap;html=1;" parent="1" vertex="1">
          <mxGeometry x="157.5" y="460" width="150" height="110" as="geometry" />
        </mxCell>
        <mxCell id="OYMvCbrC9KAhCQ8MRdoG-21" value="&lt;div&gt;&lt;u&gt;class_id&lt;/u&gt;&lt;/div&gt;&lt;div&gt;name&lt;/div&gt;&lt;div&gt;&lt;span style=&quot;background-color: initial;&quot;&gt;type&amp;nbsp;&lt;/span&gt;&lt;br&gt;&lt;/div&gt;&lt;div&gt;description&lt;/div&gt;&lt;div&gt;&lt;br&gt;&lt;/div&gt;&lt;div&gt;&lt;br&gt;&lt;/div&gt;" style="align=left;strokeColor=none;fillColor=none;spacingLeft=4;fontSize=12;verticalAlign=top;resizable=0;rotatable=0;part=1;html=1;" parent="OYMvCbrC9KAhCQ8MRdoG-20" vertex="1">
          <mxGeometry y="40" width="150" height="70" as="geometry" />
        </mxCell>
        <mxCell id="OYMvCbrC9KAhCQ8MRdoG-22" style="edgeStyle=orthogonalEdgeStyle;rounded=0;orthogonalLoop=1;jettySize=auto;html=1;exitX=0.5;exitY=1;exitDx=0;exitDy=0;" parent="OYMvCbrC9KAhCQ8MRdoG-20" source="OYMvCbrC9KAhCQ8MRdoG-21" target="OYMvCbrC9KAhCQ8MRdoG-21" edge="1">
          <mxGeometry relative="1" as="geometry" />
        </mxCell>
        <mxCell id="OYMvCbrC9KAhCQ8MRdoG-155" style="edgeStyle=orthogonalEdgeStyle;rounded=0;orthogonalLoop=1;jettySize=auto;html=1;entryX=0.5;entryY=1;entryDx=0;entryDy=0;endArrow=none;endFill=0;" parent="1" source="MQTg_DrrZjfdQlE8PDyM-27" target="OYMvCbrC9KAhCQ8MRdoG-66" edge="1">
          <mxGeometry relative="1" as="geometry">
            <mxPoint x="-490" y="430" as="sourcePoint" />
            <Array as="points">
              <mxPoint x="-490" y="320" />
              <mxPoint x="-420" y="320" />
            </Array>
          </mxGeometry>
        </mxCell>
        <mxCell id="OYMvCbrC9KAhCQ8MRdoG-55" value="equipments" style="swimlane;childLayout=stackLayout;horizontal=1;startSize=40;horizontalStack=0;rounded=1;fontSize=14;fontStyle=0;strokeWidth=2;resizeParent=0;resizeLast=1;shadow=0;dashed=0;align=center;arcSize=4;whiteSpace=wrap;html=1;" parent="1" vertex="1">
          <mxGeometry x="150" y="-280" width="160" height="170" as="geometry" />
        </mxCell>
        <mxCell id="OYMvCbrC9KAhCQ8MRdoG-56" value="&lt;div&gt;&lt;div&gt;&lt;u&gt;equipment_id&lt;/u&gt;&lt;/div&gt;&lt;/div&gt;&lt;div&gt;name&lt;/div&gt;&lt;div&gt;wear_rate&lt;/div&gt;&lt;div&gt;condition&lt;/div&gt;&lt;div&gt;last_checkup&amp;nbsp;&lt;/div&gt;" style="align=left;strokeColor=none;fillColor=none;spacingLeft=4;fontSize=12;verticalAlign=top;resizable=0;rotatable=0;part=1;html=1;" parent="OYMvCbrC9KAhCQ8MRdoG-55" vertex="1">
          <mxGeometry y="40" width="160" height="130" as="geometry" />
        </mxCell>
        <mxCell id="OYMvCbrC9KAhCQ8MRdoG-157" style="edgeStyle=orthogonalEdgeStyle;rounded=0;orthogonalLoop=1;jettySize=auto;html=1;strokeWidth=1;endArrow=none;endFill=0;" parent="1" source="OYMvCbrC9KAhCQ8MRdoG-66" target="OYMvCbrC9KAhCQ8MRdoG-5" edge="1">
          <mxGeometry relative="1" as="geometry">
            <Array as="points" />
          </mxGeometry>
        </mxCell>
        <mxCell id="OYMvCbrC9KAhCQ8MRdoG-66" value="updates" style="rhombus;whiteSpace=wrap;html=1;" parent="1" vertex="1">
          <mxGeometry x="-500" y="10" width="120" height="80" as="geometry" />
        </mxCell>
        <mxCell id="OYMvCbrC9KAhCQ8MRdoG-72" value="payments" style="swimlane;childLayout=stackLayout;horizontal=1;startSize=40;horizontalStack=0;rounded=1;fontSize=14;fontStyle=0;strokeWidth=2;resizeParent=0;resizeLast=1;shadow=0;dashed=0;align=center;arcSize=4;whiteSpace=wrap;html=1;" parent="1" vertex="1">
          <mxGeometry x="-595" y="-240" width="160" height="160" as="geometry" />
        </mxCell>
        <mxCell id="OYMvCbrC9KAhCQ8MRdoG-73" value="&lt;div&gt;&lt;u&gt;payment_id&lt;/u&gt;&lt;/div&gt;member_email&lt;br&gt;&lt;div&gt;amount&lt;/div&gt;&lt;div&gt;status&lt;/div&gt;&lt;div&gt;due_date&lt;/div&gt;" style="align=left;strokeColor=none;fillColor=none;spacingLeft=4;fontSize=12;verticalAlign=top;resizable=0;rotatable=0;part=1;html=1;" parent="OYMvCbrC9KAhCQ8MRdoG-72" vertex="1">
          <mxGeometry y="40" width="160" height="120" as="geometry" />
        </mxCell>
        <mxCell id="OYMvCbrC9KAhCQ8MRdoG-74" style="edgeStyle=orthogonalEdgeStyle;rounded=0;orthogonalLoop=1;jettySize=auto;html=1;exitX=0.5;exitY=1;exitDx=0;exitDy=0;" parent="OYMvCbrC9KAhCQ8MRdoG-72" source="OYMvCbrC9KAhCQ8MRdoG-73" target="OYMvCbrC9KAhCQ8MRdoG-73" edge="1">
          <mxGeometry relative="1" as="geometry" />
        </mxCell>
        <mxCell id="S9ZsBL9XNkuuEp8Thbzr-3" style="edgeStyle=orthogonalEdgeStyle;rounded=0;orthogonalLoop=1;jettySize=auto;html=1;" edge="1" parent="1" source="OYMvCbrC9KAhCQ8MRdoG-76" target="S9ZsBL9XNkuuEp8Thbzr-2">
          <mxGeometry relative="1" as="geometry">
            <Array as="points">
              <mxPoint x="-760" y="490" />
              <mxPoint x="-760" y="490" />
            </Array>
          </mxGeometry>
        </mxCell>
        <mxCell id="OYMvCbrC9KAhCQ8MRdoG-76" value="trainer_schedules" style="swimlane;childLayout=stackLayout;horizontal=1;startSize=40;horizontalStack=0;rounded=1;fontSize=14;fontStyle=0;strokeWidth=2;resizeParent=0;resizeLast=1;shadow=0;dashed=0;align=center;arcSize=4;whiteSpace=wrap;html=1;" parent="1" vertex="1">
          <mxGeometry x="-920" y="420" width="160" height="170" as="geometry" />
        </mxCell>
        <mxCell id="OYMvCbrC9KAhCQ8MRdoG-77" value="&lt;u&gt;schedule_id&lt;/u&gt;&lt;div&gt;trainer_email&lt;/div&gt;&lt;div&gt;booking_id&lt;/div&gt;" style="align=left;strokeColor=none;fillColor=none;spacingLeft=4;fontSize=12;verticalAlign=top;resizable=0;rotatable=0;part=1;html=1;" parent="OYMvCbrC9KAhCQ8MRdoG-76" vertex="1">
          <mxGeometry y="40" width="160" height="130" as="geometry" />
        </mxCell>
        <mxCell id="OYMvCbrC9KAhCQ8MRdoG-89" value="has" style="rhombus;whiteSpace=wrap;html=1;" parent="1" vertex="1">
          <mxGeometry x="-350" y="475" width="125" height="80" as="geometry" />
        </mxCell>
        <mxCell id="OYMvCbrC9KAhCQ8MRdoG-131" style="edgeStyle=orthogonalEdgeStyle;rounded=0;orthogonalLoop=1;jettySize=auto;html=1;entryX=0;entryY=0.5;entryDx=0;entryDy=0;endArrow=none;endFill=0;strokeWidth=4;" parent="1" source="OYMvCbrC9KAhCQ8MRdoG-128" target="OYMvCbrC9KAhCQ8MRdoG-73" edge="1">
          <mxGeometry relative="1" as="geometry" />
        </mxCell>
        <mxCell id="OYMvCbrC9KAhCQ8MRdoG-128" value="pays" style="rhombus;whiteSpace=wrap;html=1;" parent="1" vertex="1">
          <mxGeometry x="-905" y="-180" width="120" height="80" as="geometry" />
        </mxCell>
        <mxCell id="OYMvCbrC9KAhCQ8MRdoG-134" style="edgeStyle=orthogonalEdgeStyle;rounded=0;orthogonalLoop=1;jettySize=auto;html=1;entryX=0.5;entryY=0;entryDx=0;entryDy=0;strokeWidth=1;endArrow=none;endFill=0;exitX=0.5;exitY=1;exitDx=0;exitDy=0;" parent="1" source="OYMvCbrC9KAhCQ8MRdoG-132" target="OYMvCbrC9KAhCQ8MRdoG-5" edge="1">
          <mxGeometry relative="1" as="geometry" />
        </mxCell>
        <mxCell id="OYMvCbrC9KAhCQ8MRdoG-132" value="charge" style="rhombus;whiteSpace=wrap;html=1;" parent="1" vertex="1">
          <mxGeometry x="-170" y="-180" width="120" height="80" as="geometry" />
        </mxCell>
        <mxCell id="OYMvCbrC9KAhCQ8MRdoG-133" style="edgeStyle=orthogonalEdgeStyle;rounded=0;orthogonalLoop=1;jettySize=auto;html=1;exitX=1;exitY=0.5;exitDx=0;exitDy=0;entryX=0;entryY=0.5;entryDx=0;entryDy=0;endArrow=none;endFill=0;strokeWidth=4;" parent="1" source="OYMvCbrC9KAhCQ8MRdoG-73" target="OYMvCbrC9KAhCQ8MRdoG-132" edge="1">
          <mxGeometry relative="1" as="geometry">
            <Array as="points">
              <mxPoint x="-250" y="-140" />
              <mxPoint x="-250" y="-140" />
            </Array>
          </mxGeometry>
        </mxCell>
        <mxCell id="OYMvCbrC9KAhCQ8MRdoG-138" style="edgeStyle=orthogonalEdgeStyle;rounded=0;orthogonalLoop=1;jettySize=auto;html=1;entryX=0.5;entryY=1;entryDx=0;entryDy=0;endArrow=none;endFill=0;strokeWidth=4;" parent="1" source="OYMvCbrC9KAhCQ8MRdoG-136" target="OYMvCbrC9KAhCQ8MRdoG-56" edge="1">
          <mxGeometry relative="1" as="geometry" />
        </mxCell>
        <mxCell id="OYMvCbrC9KAhCQ8MRdoG-136" value="monitors" style="rhombus;whiteSpace=wrap;html=1;" parent="1" vertex="1">
          <mxGeometry x="170" y="-20" width="120" height="80" as="geometry" />
        </mxCell>
        <mxCell id="OYMvCbrC9KAhCQ8MRdoG-159" style="edgeStyle=orthogonalEdgeStyle;rounded=0;orthogonalLoop=1;jettySize=auto;html=1;exitX=1;exitY=0.25;exitDx=0;exitDy=0;entryX=0;entryY=0.5;entryDx=0;entryDy=0;endArrow=none;endFill=0;" parent="1" source="OYMvCbrC9KAhCQ8MRdoG-6" target="OYMvCbrC9KAhCQ8MRdoG-136" edge="1">
          <mxGeometry relative="1" as="geometry" />
        </mxCell>
        <mxCell id="OYMvCbrC9KAhCQ8MRdoG-162" style="edgeStyle=orthogonalEdgeStyle;rounded=0;orthogonalLoop=1;jettySize=auto;html=1;entryX=0.5;entryY=0;entryDx=0;entryDy=0;" parent="1" source="OYMvCbrC9KAhCQ8MRdoG-160" target="OYMvCbrC9KAhCQ8MRdoG-20" edge="1">
          <mxGeometry relative="1" as="geometry" />
        </mxCell>
        <mxCell id="OYMvCbrC9KAhCQ8MRdoG-160" value="manages" style="rhombus;whiteSpace=wrap;html=1;" parent="1" vertex="1">
          <mxGeometry x="170" y="130" width="125" height="70" as="geometry" />
        </mxCell>
        <mxCell id="OYMvCbrC9KAhCQ8MRdoG-161" style="edgeStyle=orthogonalEdgeStyle;rounded=0;orthogonalLoop=1;jettySize=auto;html=1;entryX=0;entryY=0.5;entryDx=0;entryDy=0;" parent="1" target="OYMvCbrC9KAhCQ8MRdoG-160" edge="1" source="OYMvCbrC9KAhCQ8MRdoG-5">
          <mxGeometry relative="1" as="geometry">
            <Array as="points">
              <mxPoint x="-50" y="165" />
            </Array>
            <mxPoint x="-170" y="120" as="sourcePoint" />
            <mxPoint x="-160" y="240" as="targetPoint" />
          </mxGeometry>
        </mxCell>
        <mxCell id="OYMvCbrC9KAhCQ8MRdoG-163" style="edgeStyle=orthogonalEdgeStyle;rounded=0;orthogonalLoop=1;jettySize=auto;html=1;strokeWidth=4;endArrow=none;endFill=0;" parent="1" source="MQTg_DrrZjfdQlE8PDyM-28" target="OYMvCbrC9KAhCQ8MRdoG-89" edge="1">
          <mxGeometry relative="1" as="geometry">
            <Array as="points" />
            <mxPoint x="-450" y="540.0000000000002" as="sourcePoint" />
          </mxGeometry>
        </mxCell>
        <mxCell id="OYMvCbrC9KAhCQ8MRdoG-164" style="edgeStyle=orthogonalEdgeStyle;rounded=0;orthogonalLoop=1;jettySize=auto;html=1;exitX=1;exitY=0.5;exitDx=0;exitDy=0;" parent="1" source="OYMvCbrC9KAhCQ8MRdoG-89" target="OYMvCbrC9KAhCQ8MRdoG-20" edge="1">
          <mxGeometry relative="1" as="geometry">
            <Array as="points" />
          </mxGeometry>
        </mxCell>
        <mxCell id="VX4ggcvhtz2IHD30wVEg-1" style="edgeStyle=orthogonalEdgeStyle;rounded=0;orthogonalLoop=1;jettySize=auto;html=1;entryX=0;entryY=0.25;entryDx=0;entryDy=0;strokeWidth=4;" parent="1" source="OYMvCbrC9KAhCQ8MRdoG-165" target="OYMvCbrC9KAhCQ8MRdoG-2" edge="1">
          <mxGeometry relative="1" as="geometry" />
        </mxCell>
        <mxCell id="OYMvCbrC9KAhCQ8MRdoG-165" value="has" style="rhombus;whiteSpace=wrap;html=1;" parent="1" vertex="1">
          <mxGeometry x="-905" y="670" width="130" height="80" as="geometry" />
        </mxCell>
        <mxCell id="OYMvCbrC9KAhCQ8MRdoG-168" style="edgeStyle=orthogonalEdgeStyle;rounded=0;orthogonalLoop=1;jettySize=auto;html=1;strokeWidth=4;" parent="1" source="OYMvCbrC9KAhCQ8MRdoG-165" target="OYMvCbrC9KAhCQ8MRdoG-76" edge="1">
          <mxGeometry relative="1" as="geometry" />
        </mxCell>
        <mxCell id="OYMvCbrC9KAhCQ8MRdoG-172" style="edgeStyle=orthogonalEdgeStyle;rounded=0;orthogonalLoop=1;jettySize=auto;html=1;strokeWidth=4;" parent="1" source="OYMvCbrC9KAhCQ8MRdoG-171" target="kGv3nj2VXKhPonacH8l7-1" edge="1">
          <mxGeometry relative="1" as="geometry">
            <Array as="points">
              <mxPoint x="-740" y="50" />
              <mxPoint x="-740" y="50" />
            </Array>
          </mxGeometry>
        </mxCell>
        <mxCell id="OYMvCbrC9KAhCQ8MRdoG-173" style="edgeStyle=orthogonalEdgeStyle;rounded=0;orthogonalLoop=1;jettySize=auto;html=1;strokeWidth=4;" parent="1" source="OYMvCbrC9KAhCQ8MRdoG-171" target="OYMvCbrC9KAhCQ8MRdoG-13" edge="1">
          <mxGeometry relative="1" as="geometry">
            <Array as="points">
              <mxPoint x="-845" y="150" />
            </Array>
          </mxGeometry>
        </mxCell>
        <mxCell id="OYMvCbrC9KAhCQ8MRdoG-171" value="has" style="rhombus;whiteSpace=wrap;html=1;" parent="1" vertex="1">
          <mxGeometry x="-670" y="100" width="130" height="80" as="geometry" />
        </mxCell>
        <mxCell id="OYMvCbrC9KAhCQ8MRdoG-183" style="edgeStyle=orthogonalEdgeStyle;rounded=0;orthogonalLoop=1;jettySize=auto;html=1;entryX=0;entryY=0.25;entryDx=0;entryDy=0;strokeWidth=1;endArrow=classic;endFill=1;" parent="1" source="OYMvCbrC9KAhCQ8MRdoG-182" target="kGv3nj2VXKhPonacH8l7-2" edge="1">
          <mxGeometry relative="1" as="geometry" />
        </mxCell>
        <mxCell id="OYMvCbrC9KAhCQ8MRdoG-185" style="edgeStyle=orthogonalEdgeStyle;rounded=0;orthogonalLoop=1;jettySize=auto;html=1;entryX=1;entryY=0.5;entryDx=0;entryDy=0;strokeWidth=4;endArrow=none;endFill=0;" parent="1" source="OYMvCbrC9KAhCQ8MRdoG-182" target="OYMvCbrC9KAhCQ8MRdoG-7" edge="1">
          <mxGeometry relative="1" as="geometry" />
        </mxCell>
        <mxCell id="OYMvCbrC9KAhCQ8MRdoG-182" value="has" style="rhombus;whiteSpace=wrap;html=1;" parent="1" vertex="1">
          <mxGeometry x="-1130" y="-50" width="130" height="80" as="geometry" />
        </mxCell>
        <mxCell id="OYMvCbrC9KAhCQ8MRdoG-186" value="routines" style="swimlane;childLayout=stackLayout;horizontal=1;startSize=40;horizontalStack=0;rounded=1;fontSize=14;fontStyle=0;strokeWidth=2;resizeParent=0;resizeLast=1;shadow=0;dashed=0;align=center;arcSize=4;whiteSpace=wrap;html=1;" parent="1" vertex="1">
          <mxGeometry x="-1360" y="40" width="160" height="100" as="geometry" />
        </mxCell>
        <mxCell id="OYMvCbrC9KAhCQ8MRdoG-187" value="&lt;div&gt;&lt;u&gt;routine_id&lt;/u&gt;&lt;/div&gt;&lt;div&gt;routine_name&lt;/div&gt;&lt;div&gt;description&lt;/div&gt;" style="align=left;strokeColor=none;fillColor=none;spacingLeft=4;fontSize=12;verticalAlign=top;resizable=0;rotatable=0;part=1;html=1;" parent="OYMvCbrC9KAhCQ8MRdoG-186" vertex="1">
          <mxGeometry y="40" width="160" height="60" as="geometry" />
        </mxCell>
        <mxCell id="OYMvCbrC9KAhCQ8MRdoG-188" style="edgeStyle=orthogonalEdgeStyle;rounded=0;orthogonalLoop=1;jettySize=auto;html=1;exitX=0.5;exitY=1;exitDx=0;exitDy=0;" parent="OYMvCbrC9KAhCQ8MRdoG-186" source="OYMvCbrC9KAhCQ8MRdoG-187" target="OYMvCbrC9KAhCQ8MRdoG-187" edge="1">
          <mxGeometry relative="1" as="geometry" />
        </mxCell>
        <mxCell id="OYMvCbrC9KAhCQ8MRdoG-190" style="edgeStyle=orthogonalEdgeStyle;rounded=0;orthogonalLoop=1;jettySize=auto;html=1;entryX=0;entryY=0.75;entryDx=0;entryDy=0;strokeWidth=1;endArrow=classic;endFill=1;" parent="1" source="OYMvCbrC9KAhCQ8MRdoG-189" target="kGv3nj2VXKhPonacH8l7-2" edge="1">
          <mxGeometry relative="1" as="geometry" />
        </mxCell>
        <mxCell id="OYMvCbrC9KAhCQ8MRdoG-191" style="edgeStyle=orthogonalEdgeStyle;rounded=0;orthogonalLoop=1;jettySize=auto;html=1;exitX=0;exitY=0.5;exitDx=0;exitDy=0;entryX=1;entryY=0.5;entryDx=0;entryDy=0;strokeWidth=4;endArrow=none;endFill=0;" parent="1" source="OYMvCbrC9KAhCQ8MRdoG-189" target="OYMvCbrC9KAhCQ8MRdoG-187" edge="1">
          <mxGeometry relative="1" as="geometry" />
        </mxCell>
        <mxCell id="OYMvCbrC9KAhCQ8MRdoG-189" value="creates" style="rhombus;whiteSpace=wrap;html=1;" parent="1" vertex="1">
          <mxGeometry x="-1130" y="70" width="130" height="80" as="geometry" />
        </mxCell>
        <mxCell id="VX4ggcvhtz2IHD30wVEg-6" value="rooms&amp;nbsp;" style="swimlane;childLayout=stackLayout;horizontal=1;startSize=40;horizontalStack=0;rounded=1;fontSize=14;fontStyle=0;strokeWidth=2;resizeParent=0;resizeLast=1;shadow=0;dashed=0;align=center;arcSize=4;whiteSpace=wrap;html=1;" parent="1" vertex="1">
          <mxGeometry x="-160" y="280" width="160" height="110" as="geometry" />
        </mxCell>
        <mxCell id="VX4ggcvhtz2IHD30wVEg-7" value="&lt;div&gt;&lt;u&gt;room_id&lt;/u&gt;&lt;/div&gt;&lt;div&gt;name&lt;/div&gt;" style="align=left;strokeColor=none;fillColor=none;spacingLeft=4;fontSize=12;verticalAlign=top;resizable=0;rotatable=0;part=1;html=1;" parent="VX4ggcvhtz2IHD30wVEg-6" vertex="1">
          <mxGeometry y="40" width="160" height="70" as="geometry" />
        </mxCell>
        <mxCell id="VX4ggcvhtz2IHD30wVEg-8" style="edgeStyle=orthogonalEdgeStyle;rounded=0;orthogonalLoop=1;jettySize=auto;html=1;exitX=0.5;exitY=1;exitDx=0;exitDy=0;" parent="VX4ggcvhtz2IHD30wVEg-6" source="VX4ggcvhtz2IHD30wVEg-7" target="VX4ggcvhtz2IHD30wVEg-7" edge="1">
          <mxGeometry relative="1" as="geometry" />
        </mxCell>
        <mxCell id="VX4ggcvhtz2IHD30wVEg-12" style="edgeStyle=orthogonalEdgeStyle;rounded=0;orthogonalLoop=1;jettySize=auto;html=1;" parent="1" source="VX4ggcvhtz2IHD30wVEg-9" target="OYMvCbrC9KAhCQ8MRdoG-5" edge="1">
          <mxGeometry relative="1" as="geometry">
            <Array as="points">
              <mxPoint x="-140" y="170" />
            </Array>
          </mxGeometry>
        </mxCell>
        <mxCell id="VX4ggcvhtz2IHD30wVEg-13" style="edgeStyle=orthogonalEdgeStyle;rounded=0;orthogonalLoop=1;jettySize=auto;html=1;" parent="1" source="VX4ggcvhtz2IHD30wVEg-9" target="VX4ggcvhtz2IHD30wVEg-6" edge="1">
          <mxGeometry relative="1" as="geometry" />
        </mxCell>
        <mxCell id="VX4ggcvhtz2IHD30wVEg-9" value="books" style="rhombus;whiteSpace=wrap;html=1;" parent="1" vertex="1">
          <mxGeometry x="-192.5" y="150" width="125" height="70" as="geometry" />
        </mxCell>
        <mxCell id="MQTg_DrrZjfdQlE8PDyM-27" value="bookings" style="swimlane;childLayout=stackLayout;horizontal=1;startSize=40;horizontalStack=0;rounded=1;fontSize=14;fontStyle=0;strokeWidth=2;resizeParent=0;resizeLast=1;shadow=0;dashed=0;align=center;arcSize=4;whiteSpace=wrap;html=1;" parent="1" vertex="1">
          <mxGeometry x="-540" y="250" width="160" height="180" as="geometry" />
        </mxCell>
        <mxCell id="MQTg_DrrZjfdQlE8PDyM-28" value="&lt;div&gt;&lt;u&gt;booking_id&lt;/u&gt;&lt;/div&gt;&lt;div&gt;name&lt;/div&gt;&lt;div&gt;desription&lt;/div&gt;&lt;div&gt;type&lt;/div&gt;&lt;div&gt;room_id&lt;/div&gt;&lt;div&gt;start&lt;/div&gt;&lt;div&gt;end&lt;/div&gt;&lt;div&gt;status&lt;/div&gt;" style="align=left;strokeColor=none;fillColor=none;spacingLeft=4;fontSize=12;verticalAlign=top;resizable=0;rotatable=0;part=1;html=1;" parent="MQTg_DrrZjfdQlE8PDyM-27" vertex="1">
          <mxGeometry y="40" width="160" height="140" as="geometry" />
        </mxCell>
        <mxCell id="MQTg_DrrZjfdQlE8PDyM-29" style="edgeStyle=orthogonalEdgeStyle;rounded=0;orthogonalLoop=1;jettySize=auto;html=1;exitX=0.5;exitY=1;exitDx=0;exitDy=0;" parent="MQTg_DrrZjfdQlE8PDyM-27" source="MQTg_DrrZjfdQlE8PDyM-28" target="MQTg_DrrZjfdQlE8PDyM-28" edge="1">
          <mxGeometry relative="1" as="geometry" />
        </mxCell>
        <mxCell id="S9ZsBL9XNkuuEp8Thbzr-10" style="edgeStyle=orthogonalEdgeStyle;rounded=0;orthogonalLoop=1;jettySize=auto;html=1;" edge="1" parent="1" source="S9ZsBL9XNkuuEp8Thbzr-2" target="MQTg_DrrZjfdQlE8PDyM-27">
          <mxGeometry relative="1" as="geometry" />
        </mxCell>
        <mxCell id="S9ZsBL9XNkuuEp8Thbzr-2" value="has" style="rhombus;whiteSpace=wrap;html=1;" vertex="1" parent="1">
          <mxGeometry x="-690" y="465" width="130" height="80" as="geometry" />
        </mxCell>
        <mxCell id="S9ZsBL9XNkuuEp8Thbzr-8" style="edgeStyle=orthogonalEdgeStyle;rounded=0;orthogonalLoop=1;jettySize=auto;html=1;" edge="1" parent="1" source="S9ZsBL9XNkuuEp8Thbzr-7" target="OYMvCbrC9KAhCQ8MRdoG-14">
          <mxGeometry relative="1" as="geometry" />
        </mxCell>
        <mxCell id="S9ZsBL9XNkuuEp8Thbzr-9" style="edgeStyle=orthogonalEdgeStyle;rounded=0;orthogonalLoop=1;jettySize=auto;html=1;" edge="1" parent="1" source="S9ZsBL9XNkuuEp8Thbzr-7" target="MQTg_DrrZjfdQlE8PDyM-28">
          <mxGeometry relative="1" as="geometry" />
        </mxCell>
        <mxCell id="S9ZsBL9XNkuuEp8Thbzr-7" value="has" style="rhombus;whiteSpace=wrap;html=1;" vertex="1" parent="1">
          <mxGeometry x="-710" y="270" width="130" height="80" as="geometry" />
        </mxCell>
        <mxCell id="S9ZsBL9XNkuuEp8Thbzr-17" style="edgeStyle=orthogonalEdgeStyle;rounded=0;orthogonalLoop=1;jettySize=auto;html=1;" edge="1" parent="1" source="S9ZsBL9XNkuuEp8Thbzr-15" target="MQTg_DrrZjfdQlE8PDyM-28">
          <mxGeometry relative="1" as="geometry">
            <Array as="points">
              <mxPoint x="-360" y="290" />
              <mxPoint x="-360" y="330" />
            </Array>
          </mxGeometry>
        </mxCell>
        <mxCell id="S9ZsBL9XNkuuEp8Thbzr-19" style="edgeStyle=orthogonalEdgeStyle;rounded=0;orthogonalLoop=1;jettySize=auto;html=1;" edge="1" parent="1" source="S9ZsBL9XNkuuEp8Thbzr-15" target="VX4ggcvhtz2IHD30wVEg-6">
          <mxGeometry relative="1" as="geometry" />
        </mxCell>
        <mxCell id="S9ZsBL9XNkuuEp8Thbzr-15" value="is in" style="rhombus;whiteSpace=wrap;html=1;" vertex="1" parent="1">
          <mxGeometry x="-340" y="250" width="125" height="80" as="geometry" />
        </mxCell>
      </root>
    </mxGraphModel>
  </diagram>
  <diagram id="JwAp4_Q37c1Jr8V4Xw6G" name="er-model-diagram">
    <mxGraphModel dx="1566" dy="427" grid="1" gridSize="10" guides="1" tooltips="1" connect="1" arrows="1" fold="1" page="0" pageScale="1" pageWidth="827" pageHeight="1169" math="0" shadow="0">
      <root>
        <mxCell id="0" />
        <mxCell id="1" parent="0" />
        <mxCell id="FQMNUi0kcbmkmCiDhAsP-1" value="" style="ellipse;whiteSpace=wrap;html=1;perimeterSpacing=0;strokeWidth=1;strokeColor=default;fillStyle=dots;fillColor=none;shadow=0;rotation=0;" vertex="1" parent="1">
          <mxGeometry x="-242" y="920" width="124" height="44" as="geometry" />
        </mxCell>
        <mxCell id="gKeI_kZQplGA1f-8Si3d-27" style="edgeStyle=orthogonalEdgeStyle;rounded=1;orthogonalLoop=1;jettySize=auto;html=1;curved=0;" parent="1" source="gKeI_kZQplGA1f-8Si3d-19" target="gKeI_kZQplGA1f-8Si3d-25" edge="1">
          <mxGeometry relative="1" as="geometry" />
        </mxCell>
        <mxCell id="gKeI_kZQplGA1f-8Si3d-29" style="edgeStyle=orthogonalEdgeStyle;rounded=1;orthogonalLoop=1;jettySize=auto;html=1;strokeColor=default;align=center;verticalAlign=middle;fontFamily=Helvetica;fontSize=11;fontColor=default;labelBackgroundColor=default;endArrow=classic;" parent="1" source="gKeI_kZQplGA1f-8Si3d-19" target="gKeI_kZQplGA1f-8Si3d-26" edge="1">
          <mxGeometry relative="1" as="geometry">
            <Array as="points">
              <mxPoint x="-180" y="780.0000000000001" />
              <mxPoint x="-300" y="780.0000000000001" />
            </Array>
          </mxGeometry>
        </mxCell>
        <mxCell id="gKeI_kZQplGA1f-8Si3d-36" style="edgeStyle=orthogonalEdgeStyle;rounded=1;orthogonalLoop=1;jettySize=auto;html=1;strokeColor=default;align=center;verticalAlign=middle;fontFamily=Helvetica;fontSize=11;fontColor=default;labelBackgroundColor=default;endArrow=classic;" parent="1" source="gKeI_kZQplGA1f-8Si3d-19" target="gKeI_kZQplGA1f-8Si3d-34" edge="1">
          <mxGeometry relative="1" as="geometry" />
        </mxCell>
        <mxCell id="gKeI_kZQplGA1f-8Si3d-37" style="edgeStyle=orthogonalEdgeStyle;rounded=1;orthogonalLoop=1;jettySize=auto;html=1;strokeColor=default;align=center;verticalAlign=middle;fontFamily=Helvetica;fontSize=11;fontColor=default;labelBackgroundColor=default;endArrow=classic;" parent="1" source="gKeI_kZQplGA1f-8Si3d-19" target="gKeI_kZQplGA1f-8Si3d-30" edge="1">
          <mxGeometry relative="1" as="geometry">
            <Array as="points">
              <mxPoint x="-180" y="780.0000000000001" />
              <mxPoint x="-60" y="780.0000000000001" />
            </Array>
          </mxGeometry>
        </mxCell>
        <mxCell id="gKeI_kZQplGA1f-8Si3d-38" style="edgeStyle=orthogonalEdgeStyle;rounded=1;orthogonalLoop=1;jettySize=auto;html=1;strokeColor=default;align=center;verticalAlign=middle;fontFamily=Helvetica;fontSize=11;fontColor=default;labelBackgroundColor=default;endArrow=classic;" parent="1" source="gKeI_kZQplGA1f-8Si3d-19" target="gKeI_kZQplGA1f-8Si3d-33" edge="1">
          <mxGeometry relative="1" as="geometry">
            <Array as="points">
              <mxPoint x="-180" y="860.0000000000001" />
              <mxPoint x="-300" y="860.0000000000001" />
            </Array>
          </mxGeometry>
        </mxCell>
        <mxCell id="gKeI_kZQplGA1f-8Si3d-39" style="edgeStyle=orthogonalEdgeStyle;rounded=1;orthogonalLoop=1;jettySize=auto;html=1;strokeColor=default;align=center;verticalAlign=middle;fontFamily=Helvetica;fontSize=11;fontColor=default;labelBackgroundColor=default;endArrow=classic;" parent="1" source="gKeI_kZQplGA1f-8Si3d-19" target="Qj5-366TSPNAFrrkkzYG-3" edge="1">
          <mxGeometry relative="1" as="geometry">
            <mxPoint x="-180" y="920.0000000000002" as="targetPoint" />
          </mxGeometry>
        </mxCell>
        <mxCell id="gKeI_kZQplGA1f-8Si3d-40" style="edgeStyle=orthogonalEdgeStyle;rounded=1;orthogonalLoop=1;jettySize=auto;html=1;strokeColor=default;align=center;verticalAlign=middle;fontFamily=Helvetica;fontSize=11;fontColor=default;labelBackgroundColor=default;endArrow=classic;" parent="1" source="gKeI_kZQplGA1f-8Si3d-19" target="gKeI_kZQplGA1f-8Si3d-31" edge="1">
          <mxGeometry relative="1" as="geometry">
            <Array as="points">
              <mxPoint x="-180" y="860.0000000000001" />
              <mxPoint x="-60" y="860.0000000000001" />
            </Array>
          </mxGeometry>
        </mxCell>
        <mxCell id="gKeI_kZQplGA1f-8Si3d-19" value="Evaluator" style="rounded=1;whiteSpace=wrap;html=1;" parent="1" vertex="1">
          <mxGeometry x="-240" y="640.0000000000001" width="120" height="40" as="geometry" />
        </mxCell>
        <mxCell id="jd8WECSUF2KnB91BpAIE-6" style="edgeStyle=orthogonalEdgeStyle;rounded=1;orthogonalLoop=1;jettySize=auto;html=1;strokeColor=default;align=center;verticalAlign=middle;fontFamily=Helvetica;fontSize=11;fontColor=default;labelBackgroundColor=default;endArrow=classic;" parent="1" source="gKeI_kZQplGA1f-8Si3d-20" target="jd8WECSUF2KnB91BpAIE-1" edge="1">
          <mxGeometry relative="1" as="geometry" />
        </mxCell>
        <mxCell id="jd8WECSUF2KnB91BpAIE-7" style="edgeStyle=orthogonalEdgeStyle;rounded=1;orthogonalLoop=1;jettySize=auto;html=1;strokeColor=default;align=center;verticalAlign=middle;fontFamily=Helvetica;fontSize=11;fontColor=default;labelBackgroundColor=default;endArrow=classic;" parent="1" source="gKeI_kZQplGA1f-8Si3d-20" target="jd8WECSUF2KnB91BpAIE-2" edge="1">
          <mxGeometry relative="1" as="geometry" />
        </mxCell>
        <mxCell id="jd8WECSUF2KnB91BpAIE-8" style="edgeStyle=orthogonalEdgeStyle;rounded=1;orthogonalLoop=1;jettySize=auto;html=1;strokeColor=default;align=center;verticalAlign=middle;fontFamily=Helvetica;fontSize=11;fontColor=default;labelBackgroundColor=default;endArrow=classic;" parent="1" source="gKeI_kZQplGA1f-8Si3d-20" target="jd8WECSUF2KnB91BpAIE-4" edge="1">
          <mxGeometry relative="1" as="geometry">
            <Array as="points">
              <mxPoint x="380" y="620" />
              <mxPoint x="500" y="620" />
            </Array>
          </mxGeometry>
        </mxCell>
        <mxCell id="jd8WECSUF2KnB91BpAIE-9" style="edgeStyle=orthogonalEdgeStyle;rounded=1;orthogonalLoop=1;jettySize=auto;html=1;strokeColor=default;align=center;verticalAlign=middle;fontFamily=Helvetica;fontSize=11;fontColor=default;labelBackgroundColor=default;endArrow=classic;" parent="1" source="gKeI_kZQplGA1f-8Si3d-20" target="gKeI_kZQplGA1f-8Si3d-42" edge="1">
          <mxGeometry relative="1" as="geometry">
            <Array as="points">
              <mxPoint x="380" y="620" />
              <mxPoint x="260" y="620" />
            </Array>
          </mxGeometry>
        </mxCell>
        <mxCell id="jd8WECSUF2KnB91BpAIE-32" style="rounded=1;orthogonalLoop=1;jettySize=auto;html=1;strokeColor=default;align=center;verticalAlign=middle;fontFamily=Helvetica;fontSize=11;fontColor=default;labelBackgroundColor=default;endArrow=none;endFill=0;targetPerimeterSpacing=0;strokeWidth=1;shape=link;" parent="1" source="gKeI_kZQplGA1f-8Si3d-20" target="jd8WECSUF2KnB91BpAIE-31" edge="1">
          <mxGeometry relative="1" as="geometry" />
        </mxCell>
        <mxCell id="f9HYgfixdXSyPgKYfVvg-1" value="M" style="edgeLabel;html=1;align=center;verticalAlign=middle;resizable=0;points=[];fontFamily=Helvetica;fontSize=11;fontColor=default;labelBackgroundColor=default;" parent="jd8WECSUF2KnB91BpAIE-32" vertex="1" connectable="0">
          <mxGeometry x="-0.0374" y="-3" relative="1" as="geometry">
            <mxPoint x="-5" y="-5" as="offset" />
          </mxGeometry>
        </mxCell>
        <mxCell id="gKeI_kZQplGA1f-8Si3d-20" value="Manuscript" style="rounded=1;whiteSpace=wrap;html=1;" parent="1" vertex="1">
          <mxGeometry x="320" y="720" width="120" height="40" as="geometry" />
        </mxCell>
        <mxCell id="jd8WECSUF2KnB91BpAIE-28" style="edgeStyle=orthogonalEdgeStyle;rounded=1;orthogonalLoop=1;jettySize=auto;html=1;strokeColor=default;align=center;verticalAlign=middle;fontFamily=Helvetica;fontSize=11;fontColor=default;labelBackgroundColor=default;endArrow=classic;" parent="1" source="gKeI_kZQplGA1f-8Si3d-21" target="jd8WECSUF2KnB91BpAIE-26" edge="1">
          <mxGeometry relative="1" as="geometry" />
        </mxCell>
        <mxCell id="jd8WECSUF2KnB91BpAIE-29" style="edgeStyle=orthogonalEdgeStyle;rounded=1;orthogonalLoop=1;jettySize=auto;html=1;strokeColor=default;align=center;verticalAlign=middle;fontFamily=Helvetica;fontSize=11;fontColor=default;labelBackgroundColor=default;endArrow=classic;" parent="1" source="gKeI_kZQplGA1f-8Si3d-21" target="jd8WECSUF2KnB91BpAIE-27" edge="1">
          <mxGeometry relative="1" as="geometry" />
        </mxCell>
        <mxCell id="jd8WECSUF2KnB91BpAIE-30" style="edgeStyle=orthogonalEdgeStyle;rounded=1;orthogonalLoop=1;jettySize=auto;html=1;strokeColor=default;align=center;verticalAlign=middle;fontFamily=Helvetica;fontSize=11;fontColor=default;labelBackgroundColor=default;endArrow=classic;" parent="1" source="gKeI_kZQplGA1f-8Si3d-21" target="jd8WECSUF2KnB91BpAIE-3" edge="1">
          <mxGeometry relative="1" as="geometry" />
        </mxCell>
        <mxCell id="gKeI_kZQplGA1f-8Si3d-21" value="Scholar" style="rounded=1;whiteSpace=wrap;html=1;" parent="1" vertex="1">
          <mxGeometry x="640" y="840" width="120" height="40" as="geometry" />
        </mxCell>
        <mxCell id="jd8WECSUF2KnB91BpAIE-10" style="rounded=1;orthogonalLoop=1;jettySize=auto;html=1;strokeColor=default;align=center;verticalAlign=middle;fontFamily=Helvetica;fontSize=11;fontColor=default;labelBackgroundColor=default;endArrow=none;endFill=0;" parent="1" source="gKeI_kZQplGA1f-8Si3d-23" target="gKeI_kZQplGA1f-8Si3d-19" edge="1">
          <mxGeometry relative="1" as="geometry" />
        </mxCell>
        <mxCell id="f9HYgfixdXSyPgKYfVvg-2" value="(2, 4)" style="edgeLabel;html=1;align=center;verticalAlign=middle;resizable=0;points=[];fontFamily=Helvetica;fontSize=11;fontColor=default;labelBackgroundColor=default;" parent="jd8WECSUF2KnB91BpAIE-10" vertex="1" connectable="0">
          <mxGeometry x="0.8708" y="1" relative="1" as="geometry">
            <mxPoint x="118" y="42" as="offset" />
          </mxGeometry>
        </mxCell>
        <mxCell id="jd8WECSUF2KnB91BpAIE-12" style="rounded=1;orthogonalLoop=1;jettySize=auto;html=1;strokeColor=default;align=center;verticalAlign=middle;fontFamily=Helvetica;fontSize=11;fontColor=default;labelBackgroundColor=default;endArrow=none;endFill=0;shape=link;" parent="1" source="gKeI_kZQplGA1f-8Si3d-23" target="gKeI_kZQplGA1f-8Si3d-20" edge="1">
          <mxGeometry relative="1" as="geometry" />
        </mxCell>
        <mxCell id="jd8WECSUF2KnB91BpAIE-13" value="M" style="edgeLabel;html=1;align=center;verticalAlign=middle;resizable=0;points=[];fontFamily=Helvetica;fontSize=11;fontColor=default;labelBackgroundColor=default;" parent="jd8WECSUF2KnB91BpAIE-12" vertex="1" connectable="0">
          <mxGeometry x="0.7477" relative="1" as="geometry">
            <mxPoint x="-18" y="7" as="offset" />
          </mxGeometry>
        </mxCell>
        <mxCell id="jd8WECSUF2KnB91BpAIE-19" style="edgeStyle=orthogonalEdgeStyle;rounded=1;orthogonalLoop=1;jettySize=auto;html=1;strokeColor=default;align=center;verticalAlign=middle;fontFamily=Helvetica;fontSize=11;fontColor=default;labelBackgroundColor=default;endArrow=classic;" parent="1" source="gKeI_kZQplGA1f-8Si3d-23" target="gKeI_kZQplGA1f-8Si3d-43" edge="1">
          <mxGeometry relative="1" as="geometry" />
        </mxCell>
        <mxCell id="jd8WECSUF2KnB91BpAIE-21" style="edgeStyle=orthogonalEdgeStyle;rounded=1;orthogonalLoop=1;jettySize=auto;html=1;strokeColor=default;align=center;verticalAlign=middle;fontFamily=Helvetica;fontSize=11;fontColor=default;labelBackgroundColor=default;endArrow=classic;" parent="1" source="gKeI_kZQplGA1f-8Si3d-23" target="gKeI_kZQplGA1f-8Si3d-45" edge="1">
          <mxGeometry relative="1" as="geometry">
            <Array as="points">
              <mxPoint x="220" y="940" />
              <mxPoint x="340" y="940" />
            </Array>
          </mxGeometry>
        </mxCell>
        <mxCell id="jd8WECSUF2KnB91BpAIE-22" style="edgeStyle=orthogonalEdgeStyle;rounded=1;orthogonalLoop=1;jettySize=auto;html=1;strokeColor=default;align=center;verticalAlign=middle;fontFamily=Helvetica;fontSize=11;fontColor=default;labelBackgroundColor=default;endArrow=classic;" parent="1" source="gKeI_kZQplGA1f-8Si3d-23" target="gKeI_kZQplGA1f-8Si3d-44" edge="1">
          <mxGeometry relative="1" as="geometry">
            <Array as="points">
              <mxPoint x="220" y="940" />
              <mxPoint x="100" y="940" />
            </Array>
          </mxGeometry>
        </mxCell>
        <mxCell id="jd8WECSUF2KnB91BpAIE-23" style="edgeStyle=orthogonalEdgeStyle;rounded=1;orthogonalLoop=1;jettySize=auto;html=1;strokeColor=default;align=center;verticalAlign=middle;fontFamily=Helvetica;fontSize=11;fontColor=default;labelBackgroundColor=default;endArrow=classic;" parent="1" source="gKeI_kZQplGA1f-8Si3d-23" target="gKeI_kZQplGA1f-8Si3d-47" edge="1">
          <mxGeometry relative="1" as="geometry">
            <Array as="points">
              <mxPoint x="220" y="1040" />
              <mxPoint x="220" y="1040" />
            </Array>
          </mxGeometry>
        </mxCell>
        <mxCell id="jd8WECSUF2KnB91BpAIE-24" style="edgeStyle=orthogonalEdgeStyle;rounded=1;orthogonalLoop=1;jettySize=auto;html=1;strokeColor=default;align=center;verticalAlign=middle;fontFamily=Helvetica;fontSize=11;fontColor=default;labelBackgroundColor=default;endArrow=classic;" parent="1" source="gKeI_kZQplGA1f-8Si3d-23" target="gKeI_kZQplGA1f-8Si3d-46" edge="1">
          <mxGeometry relative="1" as="geometry">
            <Array as="points">
              <mxPoint x="220" y="860" />
              <mxPoint x="100" y="860" />
            </Array>
          </mxGeometry>
        </mxCell>
        <mxCell id="gKeI_kZQplGA1f-8Si3d-23" value="Judgement" style="rhombus;whiteSpace=wrap;html=1;" parent="1" vertex="1">
          <mxGeometry x="160" y="760" width="120" height="80" as="geometry" />
        </mxCell>
        <mxCell id="gKeI_kZQplGA1f-8Si3d-25" value="evaluator_id" style="ellipse;whiteSpace=wrap;html=1;fontStyle=4" parent="1" vertex="1">
          <mxGeometry x="-360" y="720.0000000000001" width="120" height="40" as="geometry" />
        </mxCell>
        <mxCell id="gKeI_kZQplGA1f-8Si3d-26" value="evaluator_email" style="ellipse;whiteSpace=wrap;html=1;" parent="1" vertex="1">
          <mxGeometry x="-360" y="800.0000000000001" width="120" height="40" as="geometry" />
        </mxCell>
        <mxCell id="gKeI_kZQplGA1f-8Si3d-30" value="first_name" style="ellipse;whiteSpace=wrap;html=1;" parent="1" vertex="1">
          <mxGeometry x="-120" y="800.0000000000001" width="120" height="40" as="geometry" />
        </mxCell>
        <mxCell id="gKeI_kZQplGA1f-8Si3d-31" value="last_name" style="ellipse;whiteSpace=wrap;html=1;" parent="1" vertex="1">
          <mxGeometry x="-120" y="880.0000000000001" width="120" height="40" as="geometry" />
        </mxCell>
        <mxCell id="gKeI_kZQplGA1f-8Si3d-33" value="phone" style="ellipse;whiteSpace=wrap;html=1;" parent="1" vertex="1">
          <mxGeometry x="-360" y="880.0000000000001" width="120" height="40" as="geometry" />
        </mxCell>
        <mxCell id="gKeI_kZQplGA1f-8Si3d-34" value="instution" style="ellipse;whiteSpace=wrap;html=1;" parent="1" vertex="1">
          <mxGeometry x="-120" y="720.0000000000001" width="120" height="40" as="geometry" />
        </mxCell>
        <mxCell id="gKeI_kZQplGA1f-8Si3d-42" value="manuscript_id" style="ellipse;whiteSpace=wrap;html=1;fontStyle=4" parent="1" vertex="1">
          <mxGeometry x="200" y="560" width="120" height="40" as="geometry" />
        </mxCell>
        <mxCell id="gKeI_kZQplGA1f-8Si3d-43" value="scholarly_merit" style="ellipse;whiteSpace=wrap;html=1;" parent="1" vertex="1">
          <mxGeometry x="280" y="880" width="120" height="40" as="geometry" />
        </mxCell>
        <mxCell id="gKeI_kZQplGA1f-8Si3d-44" value="clarity" style="ellipse;whiteSpace=wrap;html=1;" parent="1" vertex="1">
          <mxGeometry x="40" y="960" width="120" height="40" as="geometry" />
        </mxCell>
        <mxCell id="gKeI_kZQplGA1f-8Si3d-45" value="innovativeness" style="ellipse;whiteSpace=wrap;html=1;" parent="1" vertex="1">
          <mxGeometry x="280" y="960" width="120" height="40" as="geometry" />
        </mxCell>
        <mxCell id="gKeI_kZQplGA1f-8Si3d-46" value="relavance" style="ellipse;whiteSpace=wrap;html=1;" parent="1" vertex="1">
          <mxGeometry x="40" y="880" width="120" height="40" as="geometry" />
        </mxCell>
        <mxCell id="gKeI_kZQplGA1f-8Si3d-47" value="overall" style="ellipse;whiteSpace=wrap;html=1;" parent="1" vertex="1">
          <mxGeometry x="160" y="1000" width="120" height="40" as="geometry" />
        </mxCell>
        <mxCell id="Qj5-366TSPNAFrrkkzYG-3" value="field_of_interest" style="ellipse;whiteSpace=wrap;html=1;perimeterSpacing=2;strokeWidth=1;strokeColor=default;fillStyle=dots;fillColor=none;" parent="1" vertex="1">
          <mxGeometry x="-240" y="922" width="120" height="40" as="geometry" />
        </mxCell>
        <mxCell id="jd8WECSUF2KnB91BpAIE-1" value="title" style="ellipse;whiteSpace=wrap;html=1;" parent="1" vertex="1">
          <mxGeometry x="440" y="640" width="120" height="40" as="geometry" />
        </mxCell>
        <mxCell id="jd8WECSUF2KnB91BpAIE-2" value="synopsis" style="ellipse;whiteSpace=wrap;html=1;" parent="1" vertex="1">
          <mxGeometry x="200" y="640" width="120" height="40" as="geometry" />
        </mxCell>
        <mxCell id="jd8WECSUF2KnB91BpAIE-3" value="scholar_email" style="ellipse;whiteSpace=wrap;html=1;fontStyle=4" parent="1" vertex="1">
          <mxGeometry x="640" y="960" width="120" height="40" as="geometry" />
        </mxCell>
        <mxCell id="jd8WECSUF2KnB91BpAIE-4" value="filename" style="ellipse;whiteSpace=wrap;html=1;" parent="1" vertex="1">
          <mxGeometry x="440" y="560" width="120" height="40" as="geometry" />
        </mxCell>
        <mxCell id="jd8WECSUF2KnB91BpAIE-26" value="first_name" style="ellipse;whiteSpace=wrap;html=1;" parent="1" vertex="1">
          <mxGeometry x="760" y="920" width="120" height="40" as="geometry" />
        </mxCell>
        <mxCell id="jd8WECSUF2KnB91BpAIE-27" value="last_name" style="ellipse;whiteSpace=wrap;html=1;" parent="1" vertex="1">
          <mxGeometry x="520" y="920" width="120" height="40" as="geometry" />
        </mxCell>
        <mxCell id="f9HYgfixdXSyPgKYfVvg-5" style="rounded=1;orthogonalLoop=1;jettySize=auto;html=1;strokeColor=default;align=center;verticalAlign=middle;fontFamily=Helvetica;fontSize=11;fontColor=default;labelBackgroundColor=default;endArrow=none;endFill=0;" parent="1" source="jd8WECSUF2KnB91BpAIE-31" target="gKeI_kZQplGA1f-8Si3d-21" edge="1">
          <mxGeometry relative="1" as="geometry" />
        </mxCell>
        <mxCell id="f9HYgfixdXSyPgKYfVvg-6" value="N" style="edgeLabel;html=1;align=center;verticalAlign=middle;resizable=0;points=[];fontFamily=Helvetica;fontSize=11;fontColor=default;labelBackgroundColor=default;" parent="f9HYgfixdXSyPgKYfVvg-5" vertex="1" connectable="0">
          <mxGeometry x="0.5621" y="1" relative="1" as="geometry">
            <mxPoint x="-31" y="-7" as="offset" />
          </mxGeometry>
        </mxCell>
        <mxCell id="jd8WECSUF2KnB91BpAIE-31" value="Authoring" style="rhombus;whiteSpace=wrap;html=1;" parent="1" vertex="1">
          <mxGeometry x="480" y="760" width="120" height="80" as="geometry" />
        </mxCell>
        <mxCell id="_nJ_AYF7SmCPsU6mMkeD-1" value="ER Model Diagram" style="text;html=1;align=center;verticalAlign=middle;resizable=0;points=[];autosize=1;strokeColor=none;fillColor=none;fontFamily=Helvetica;fontSize=24;fontColor=default;labelBackgroundColor=default;" parent="1" vertex="1">
          <mxGeometry x="15" y="480" width="230" height="40" as="geometry" />
        </mxCell>
      </root>
    </mxGraphModel>
  </diagram>
  <diagram id="B45y0ASjbISqT4VXNV1P" name="database-schema-diagram">
    <mxGraphModel dx="320" dy="111" grid="1" gridSize="10" guides="1" tooltips="1" connect="1" arrows="1" fold="1" page="0" pageScale="1" pageWidth="827" pageHeight="1169" math="0" shadow="0">
      <root>
        <mxCell id="0" />
        <mxCell id="1" parent="0" />
        <mxCell id="8X9BPyTYyztRg60HOqO5-19" value="scholar_email" style="rounded=0;whiteSpace=wrap;html=1;fontFamily=Helvetica;fontSize=11;fontColor=default;labelBackgroundColor=default;fontStyle=4" parent="1" vertex="1">
          <mxGeometry x="720" y="760" width="80" height="40" as="geometry" />
        </mxCell>
        <mxCell id="8X9BPyTYyztRg60HOqO5-20" value="Scholar" style="text;html=1;align=right;verticalAlign=middle;resizable=0;points=[];autosize=1;strokeColor=none;fillColor=none;fontFamily=Helvetica;fontSize=16;fontColor=default;labelBackgroundColor=default;" parent="1" vertex="1">
          <mxGeometry x="630" y="765" width="80" height="30" as="geometry" />
        </mxCell>
        <mxCell id="8X9BPyTYyztRg60HOqO5-21" value="first_name" style="rounded=0;whiteSpace=wrap;html=1;fontFamily=Helvetica;fontSize=11;fontColor=default;labelBackgroundColor=default;" parent="1" vertex="1">
          <mxGeometry x="800" y="760" width="80" height="40" as="geometry" />
        </mxCell>
        <mxCell id="8X9BPyTYyztRg60HOqO5-22" value="last_name" style="rounded=0;whiteSpace=wrap;html=1;fontFamily=Helvetica;fontSize=11;fontColor=default;labelBackgroundColor=default;" parent="1" vertex="1">
          <mxGeometry x="880" y="760" width="80" height="40" as="geometry" />
        </mxCell>
        <mxCell id="8X9BPyTYyztRg60HOqO5-24" value="Authoring" style="text;html=1;align=right;verticalAlign=middle;resizable=0;points=[];autosize=1;strokeColor=none;fillColor=none;fontFamily=Helvetica;fontSize=16;fontColor=default;labelBackgroundColor=default;" parent="1" vertex="1">
          <mxGeometry x="620" y="885" width="90" height="30" as="geometry" />
        </mxCell>
        <mxCell id="8X9BPyTYyztRg60HOqO5-26" style="edgeStyle=orthogonalEdgeStyle;rounded=1;orthogonalLoop=1;jettySize=auto;html=1;strokeColor=default;align=center;verticalAlign=middle;fontFamily=Helvetica;fontSize=11;fontColor=default;labelBackgroundColor=default;endArrow=block;endFill=1;" parent="1" source="8X9BPyTYyztRg60HOqO5-25" target="8X9BPyTYyztRg60HOqO5-19" edge="1">
          <mxGeometry relative="1" as="geometry">
            <Array as="points">
              <mxPoint x="760" y="820" />
              <mxPoint x="760" y="820" />
            </Array>
          </mxGeometry>
        </mxCell>
        <mxCell id="8X9BPyTYyztRg60HOqO5-25" value="scholar_email" style="rounded=0;whiteSpace=wrap;html=1;fontFamily=Helvetica;fontSize=11;fontColor=default;labelBackgroundColor=default;fontStyle=4" parent="1" vertex="1">
          <mxGeometry x="720" y="880" width="80" height="40" as="geometry" />
        </mxCell>
        <mxCell id="VG7sR3-vMyKaDYKKzqTG-2" style="edgeStyle=orthogonalEdgeStyle;rounded=1;orthogonalLoop=1;jettySize=auto;html=1;strokeColor=default;align=center;verticalAlign=middle;fontFamily=Helvetica;fontSize=11;fontColor=default;labelBackgroundColor=default;endArrow=block;endFill=1;" parent="1" source="8X9BPyTYyztRg60HOqO5-27" target="VG7sR3-vMyKaDYKKzqTG-1" edge="1">
          <mxGeometry relative="1" as="geometry">
            <Array as="points">
              <mxPoint x="760" y="960" />
              <mxPoint x="840" y="960" />
            </Array>
          </mxGeometry>
        </mxCell>
        <mxCell id="8X9BPyTYyztRg60HOqO5-27" value="manuscript_id" style="rounded=0;whiteSpace=wrap;html=1;fontFamily=Helvetica;fontSize=11;fontColor=default;labelBackgroundColor=default;fontStyle=4" parent="1" vertex="1">
          <mxGeometry x="720" y="1000" width="80" height="40" as="geometry" />
        </mxCell>
        <mxCell id="8X9BPyTYyztRg60HOqO5-28" value="Manuscript" style="text;html=1;align=right;verticalAlign=middle;resizable=0;points=[];autosize=1;strokeColor=none;fillColor=none;fontFamily=Helvetica;fontSize=16;fontColor=default;labelBackgroundColor=default;" parent="1" vertex="1">
          <mxGeometry x="610" y="1005" width="100" height="30" as="geometry" />
        </mxCell>
        <mxCell id="8X9BPyTYyztRg60HOqO5-32" style="edgeStyle=orthogonalEdgeStyle;rounded=1;orthogonalLoop=1;jettySize=auto;html=1;strokeColor=default;align=center;verticalAlign=middle;fontFamily=Helvetica;fontSize=11;fontColor=default;labelBackgroundColor=default;endArrow=block;endFill=1;" parent="1" source="8X9BPyTYyztRg60HOqO5-29" target="8X9BPyTYyztRg60HOqO5-19" edge="1">
          <mxGeometry relative="1" as="geometry">
            <Array as="points">
              <mxPoint x="840" y="980" />
              <mxPoint x="900" y="980" />
              <mxPoint x="900" y="820" />
              <mxPoint x="770" y="820" />
            </Array>
          </mxGeometry>
        </mxCell>
        <mxCell id="8X9BPyTYyztRg60HOqO5-29" value="primary_contact" style="rounded=0;whiteSpace=wrap;html=1;fontFamily=Helvetica;fontSize=11;fontColor=default;labelBackgroundColor=default;" parent="1" vertex="1">
          <mxGeometry x="800" y="1000" width="120" height="40" as="geometry" />
        </mxCell>
        <mxCell id="8X9BPyTYyztRg60HOqO5-30" value="title" style="rounded=0;whiteSpace=wrap;html=1;fontFamily=Helvetica;fontSize=11;fontColor=default;labelBackgroundColor=default;" parent="1" vertex="1">
          <mxGeometry x="920" y="1000" width="40" height="40" as="geometry" />
        </mxCell>
        <mxCell id="8X9BPyTYyztRg60HOqO5-31" value="synonpsis" style="rounded=0;whiteSpace=wrap;html=1;fontFamily=Helvetica;fontSize=11;fontColor=default;labelBackgroundColor=default;" parent="1" vertex="1">
          <mxGeometry x="960" y="1000" width="80" height="40" as="geometry" />
        </mxCell>
        <mxCell id="VG7sR3-vMyKaDYKKzqTG-1" value="manuscript_id" style="rounded=0;whiteSpace=wrap;html=1;fontFamily=Helvetica;fontSize=11;fontColor=default;labelBackgroundColor=default;fontStyle=0" parent="1" vertex="1">
          <mxGeometry x="800" y="880" width="80" height="40" as="geometry" />
        </mxCell>
        <mxCell id="VG7sR3-vMyKaDYKKzqTG-4" value="filename" style="rounded=0;whiteSpace=wrap;html=1;fontFamily=Helvetica;fontSize=11;fontColor=default;labelBackgroundColor=default;" parent="1" vertex="1">
          <mxGeometry x="1040" y="1000" width="80" height="40" as="geometry" />
        </mxCell>
        <mxCell id="VG7sR3-vMyKaDYKKzqTG-18" style="edgeStyle=orthogonalEdgeStyle;rounded=1;orthogonalLoop=1;jettySize=auto;html=1;strokeColor=default;align=center;verticalAlign=middle;fontFamily=Helvetica;fontSize=11;fontColor=default;labelBackgroundColor=default;endArrow=block;endFill=1;" parent="1" source="VG7sR3-vMyKaDYKKzqTG-5" target="8X9BPyTYyztRg60HOqO5-27" edge="1">
          <mxGeometry relative="1" as="geometry">
            <Array as="points">
              <mxPoint x="840" y="1060" />
              <mxPoint x="760" y="1060" />
            </Array>
          </mxGeometry>
        </mxCell>
        <mxCell id="VG7sR3-vMyKaDYKKzqTG-5" value="manuscript_id" style="rounded=0;whiteSpace=wrap;html=1;fontFamily=Helvetica;fontSize=11;fontColor=default;labelBackgroundColor=default;fontStyle=4" parent="1" vertex="1">
          <mxGeometry x="800" y="1080" width="80" height="40" as="geometry" />
        </mxCell>
        <mxCell id="VG7sR3-vMyKaDYKKzqTG-6" value="Judgement" style="text;html=1;align=right;verticalAlign=middle;resizable=0;points=[];autosize=1;strokeColor=none;fillColor=none;fontFamily=Helvetica;fontSize=16;fontColor=default;labelBackgroundColor=default;" parent="1" vertex="1">
          <mxGeometry x="610" y="1085" width="100" height="30" as="geometry" />
        </mxCell>
        <mxCell id="VG7sR3-vMyKaDYKKzqTG-12" value="scholarly_merit" style="rounded=0;whiteSpace=wrap;html=1;fontFamily=Helvetica;fontSize=11;fontColor=default;labelBackgroundColor=default;fontStyle=0" parent="1" vertex="1">
          <mxGeometry x="880" y="1080" width="80" height="40" as="geometry" />
        </mxCell>
        <mxCell id="VG7sR3-vMyKaDYKKzqTG-13" value="clarity" style="rounded=0;whiteSpace=wrap;html=1;fontFamily=Helvetica;fontSize=11;fontColor=default;labelBackgroundColor=default;fontStyle=0" parent="1" vertex="1">
          <mxGeometry x="960" y="1080" width="40" height="40" as="geometry" />
        </mxCell>
        <mxCell id="VG7sR3-vMyKaDYKKzqTG-14" value="innovativeness" style="rounded=0;whiteSpace=wrap;html=1;fontFamily=Helvetica;fontSize=11;fontColor=default;labelBackgroundColor=default;fontStyle=0" parent="1" vertex="1">
          <mxGeometry x="1000" y="1080" width="80" height="40" as="geometry" />
        </mxCell>
        <mxCell id="VG7sR3-vMyKaDYKKzqTG-16" value="relevance" style="rounded=0;whiteSpace=wrap;html=1;fontFamily=Helvetica;fontSize=11;fontColor=default;labelBackgroundColor=default;fontStyle=0" parent="1" vertex="1">
          <mxGeometry x="1080" y="1080" width="80" height="40" as="geometry" />
        </mxCell>
        <mxCell id="VG7sR3-vMyKaDYKKzqTG-17" value="overall" style="rounded=0;whiteSpace=wrap;html=1;fontFamily=Helvetica;fontSize=11;fontColor=default;labelBackgroundColor=default;fontStyle=0" parent="1" vertex="1">
          <mxGeometry x="1160" y="1080" width="40" height="40" as="geometry" />
        </mxCell>
        <mxCell id="VG7sR3-vMyKaDYKKzqTG-20" value="first_name" style="rounded=0;whiteSpace=wrap;html=1;fontFamily=Helvetica;fontSize=11;fontColor=default;labelBackgroundColor=default;fontStyle=0" parent="1" vertex="1">
          <mxGeometry x="800" y="1160" width="80" height="40" as="geometry" />
        </mxCell>
        <mxCell id="VG7sR3-vMyKaDYKKzqTG-21" value="Evaluator" style="text;html=1;align=right;verticalAlign=middle;resizable=0;points=[];autosize=1;strokeColor=none;fillColor=none;fontFamily=Helvetica;fontSize=16;fontColor=default;labelBackgroundColor=default;" parent="1" vertex="1">
          <mxGeometry x="620" y="1165" width="90" height="30" as="geometry" />
        </mxCell>
        <mxCell id="VG7sR3-vMyKaDYKKzqTG-30" style="edgeStyle=orthogonalEdgeStyle;rounded=1;orthogonalLoop=1;jettySize=auto;html=1;strokeColor=default;align=center;verticalAlign=middle;fontFamily=Helvetica;fontSize=11;fontColor=default;labelBackgroundColor=default;endArrow=none;endFill=0;startArrow=block;startFill=1;" parent="1" source="VG7sR3-vMyKaDYKKzqTG-22" target="VG7sR3-vMyKaDYKKzqTG-29" edge="1">
          <mxGeometry relative="1" as="geometry" />
        </mxCell>
        <mxCell id="GMOsEh_amBedhcBl-Ghv-1" style="edgeStyle=orthogonalEdgeStyle;rounded=1;orthogonalLoop=1;jettySize=auto;html=1;strokeColor=default;align=center;verticalAlign=middle;fontFamily=Helvetica;fontSize=11;fontColor=default;labelBackgroundColor=default;endArrow=none;endFill=0;startArrow=block;startFill=1;" parent="1" source="VG7sR3-vMyKaDYKKzqTG-22" target="qzweM7rLr1iYvML9PMBn-2" edge="1">
          <mxGeometry relative="1" as="geometry" />
        </mxCell>
        <mxCell id="VG7sR3-vMyKaDYKKzqTG-22" value="evaluator_id" style="rounded=0;whiteSpace=wrap;html=1;fontFamily=Helvetica;fontSize=11;fontColor=default;labelBackgroundColor=default;fontStyle=4" parent="1" vertex="1">
          <mxGeometry x="720" y="1160" width="80" height="40" as="geometry" />
        </mxCell>
        <mxCell id="VG7sR3-vMyKaDYKKzqTG-23" value="last_name" style="rounded=0;whiteSpace=wrap;html=1;fontFamily=Helvetica;fontSize=11;fontColor=default;labelBackgroundColor=default;fontStyle=0" parent="1" vertex="1">
          <mxGeometry x="880" y="1160" width="80" height="40" as="geometry" />
        </mxCell>
        <mxCell id="VG7sR3-vMyKaDYKKzqTG-24" value="phone" style="rounded=0;whiteSpace=wrap;html=1;fontFamily=Helvetica;fontSize=11;fontColor=default;labelBackgroundColor=default;fontStyle=0" parent="1" vertex="1">
          <mxGeometry x="960" y="1160" width="40" height="40" as="geometry" />
        </mxCell>
        <mxCell id="VG7sR3-vMyKaDYKKzqTG-25" value="insitution" style="rounded=0;whiteSpace=wrap;html=1;fontFamily=Helvetica;fontSize=11;fontColor=default;labelBackgroundColor=default;fontStyle=0" parent="1" vertex="1">
          <mxGeometry x="1000" y="1160" width="80" height="40" as="geometry" />
        </mxCell>
        <mxCell id="VG7sR3-vMyKaDYKKzqTG-27" value="overall" style="rounded=0;whiteSpace=wrap;html=1;fontFamily=Helvetica;fontSize=11;fontColor=default;labelBackgroundColor=default;fontStyle=0" parent="1" vertex="1">
          <mxGeometry x="1080" y="1160" width="40" height="40" as="geometry" />
        </mxCell>
        <mxCell id="VG7sR3-vMyKaDYKKzqTG-29" value="evaluator_id" style="rounded=0;whiteSpace=wrap;html=1;fontFamily=Helvetica;fontSize=11;fontColor=default;labelBackgroundColor=default;fontStyle=4" parent="1" vertex="1">
          <mxGeometry x="720" y="1080" width="80" height="40" as="geometry" />
        </mxCell>
        <mxCell id="qzweM7rLr1iYvML9PMBn-2" value="evaluator_id" style="rounded=0;whiteSpace=wrap;html=1;fontFamily=Helvetica;fontSize=11;fontColor=default;labelBackgroundColor=default;fontStyle=4" parent="1" vertex="1">
          <mxGeometry x="720" y="1240" width="80" height="40" as="geometry" />
        </mxCell>
        <mxCell id="qzweM7rLr1iYvML9PMBn-3" value="FieldOfInterest" style="text;html=1;align=right;verticalAlign=middle;resizable=0;points=[];autosize=1;strokeColor=none;fillColor=none;fontFamily=Helvetica;fontSize=16;fontColor=default;labelBackgroundColor=default;" parent="1" vertex="1">
          <mxGeometry x="580" y="1245" width="130" height="30" as="geometry" />
        </mxCell>
        <mxCell id="qzweM7rLr1iYvML9PMBn-5" value="field_of_interest" style="rounded=0;whiteSpace=wrap;html=1;fontFamily=Helvetica;fontSize=11;fontColor=default;labelBackgroundColor=default;fontStyle=4" parent="1" vertex="1">
          <mxGeometry x="800" y="1240" width="120" height="40" as="geometry" />
        </mxCell>
        <mxCell id="g4LWjprO_YXeaodOlHM2-1" value="Database Schema Diagram" style="text;html=1;align=center;verticalAlign=middle;resizable=0;points=[];autosize=1;strokeColor=none;fillColor=none;fontFamily=Helvetica;fontSize=24;fontColor=default;labelBackgroundColor=default;" parent="1" vertex="1">
          <mxGeometry x="800" y="680" width="320" height="40" as="geometry" />
        </mxCell>
      </root>
    </mxGraphModel>
  </diagram>
</mxfile>
